<?xml version="1.0" encoding="iso-8859-1"?>
<!-- Uploaded to: SVG Repo, www.svgrepo.com, Generator: SVG Repo Mixer Tools -->
<svg height="800px" width="800px" version="1.1" id="Layer_1" xmlns="http://www.w3.org/2000/svg" xmlns:xlink="http://www.w3.org/1999/xlink" 
	 viewBox="0 0 512 512" xml:space="preserve">
<g>
	<path style="fill:#D1DFE9;" d="M26.731,0c-4.854,0-8.79,3.936-8.79,8.79v135.222H35.52V8.79C35.52,3.936,31.585,0,26.731,0z"/>
	<path style="fill:#D1DFE9;" d="M103.154,0c-4.854,0-8.79,3.936-8.79,8.79v135.222h17.579V8.79C111.943,3.936,108.008,0,103.154,0z"
		/>
	<path style="fill:#D1DFE9;" d="M256,0c-4.854,0-8.79,3.936-8.79,8.79v135.222h17.579V8.79C264.79,3.936,260.854,0,256,0z"/>
	<path style="fill:#D1DFE9;" d="M408.845,0c-4.854,0-8.79,3.936-8.79,8.79v135.222h17.579V8.79C417.635,3.936,413.699,0,408.845,0z"
		/>
	<path style="fill:#D1DFE9;" d="M485.269,0c-4.854,0-8.79,3.936-8.79,8.79v135.222h17.579V8.79C494.059,3.936,490.124,0,485.269,0z"
		/>
	<path style="fill:#D1DFE9;" d="M332.423,0c-4.854,0-8.79,3.936-8.79,8.79v135.222h17.579V8.79C341.213,3.936,337.277,0,332.423,0z"
		/>
	<path style="fill:#D1DFE9;" d="M179.577,0c-4.854,0-8.79,3.936-8.79,8.79v135.222h17.579V8.79C188.367,3.936,184.431,0,179.577,0z"
		/>
</g>
<path style="fill:#FFD66E;" d="M467.329,133.024c0,110.483-85.227,201.423-193.388,210.559h-35.882
	C129.899,334.447,44.671,243.508,44.671,133.024H8.79c0,66.082,25.7,128.176,72.368,174.842
	c42.418,42.418,97.582,67.508,156.902,71.726h35.882c59.319-4.218,114.484-29.308,156.902-71.726
	c46.667-46.667,72.368-108.76,72.368-174.843H467.329z"/>
<path style="fill:#FFBF1F;" d="M390.905,133.024c0,68.305-51.029,124.909-116.965,133.71h-35.882
	c-65.937-8.801-116.966-65.405-116.966-133.71H85.212c0,45.652,17.755,88.55,49.996,120.79
	c27.98,27.979,63.986,45.041,102.85,49.064h35.882c38.866-4.025,74.871-21.085,102.849-49.064
	c32.241-32.241,49.996-75.139,49.996-120.79L390.905,133.024L390.905,133.024z"/>
<path style="fill:#FFD66E;" d="M314.481,133.024c0,25.99-17.045,48.064-40.541,55.656h-35.882
	c-23.496-7.592-40.542-29.666-40.542-55.656h-35.882c0,45.898,32.944,84.227,76.423,92.632h35.882
	c43.478-8.405,76.422-46.735,76.422-92.632H314.481z"/>
<path style="fill:#FFBF1F;" d="M273.941,461.9V133.024h-35.882v328.876c-83.141-0.001-105.24,41.309-105.24,41.309H379.18
	C379.18,503.21,357.08,461.9,273.941,461.9z"/>
<path style="fill:#FFD66E;" d="M391.186,512H120.813c-4.854,0-8.79-3.936-8.79-8.79c0-4.854,3.936-8.79,8.79-8.79h270.372
	c4.854,0,8.79,3.936,8.79,8.79C399.975,508.064,396.04,512,391.186,512z"/>
</svg>