<?xml version="1.0" encoding="iso-8859-1"?>
<!-- Uploaded to: SVG Repo, www.svgrepo.com, Generator: SVG Repo Mixer Tools -->
<!DOCTYPE svg PUBLIC "-//W3C//DTD SVG 1.1//EN" "http://www.w3.org/Graphics/SVG/1.1/DTD/svg11.dtd">
<svg fill="#000000" version="1.1" id="Capa_1" xmlns="http://www.w3.org/2000/svg" xmlns:xlink="http://www.w3.org/1999/xlink" 
	 width="800px" height="800px" viewBox="0 0 361.681 361.681"
	 xml:space="preserve">
<g>
	<g>
		<g>
			<path d="M345.869,208.3c-3.116-23.269-11.175-41.757-24.68-56.502c-20.849-22.761-48.099-29.273-74.075-17.684
				c-19.354,8.641-30.444,25.298-37.933,38.854c-1.867,3.366-3.513,6.857-5.164,10.331c-2.498,5.281-4.87,10.26-7.933,14.823
				c-8.274,12.273-13.745,14.796-19.422,14.796c-1.781,0-3.726-0.265-5.939-0.805c-5.017-1.243-9.851-3.603-14.961-6.101
				c-0.471-0.217-0.946-0.457-1.408-0.673c8.848-5.681,16.393-13.583,22.458-23.515c10.919-17.895,13.571-37.062,7.653-55.458
				c-7.389-22.959-24.175-35.566-49.896-37.443c-30.129-2.195-57.346,5.818-83.815,24.5c-4.78,3.387-5.738,7.47-2.927,12.469
				c3.215,5.749,6.227,11.598,9.253,17.438l12.28,23.68l4.789-3.104c0.862-0.535,1.543-0.967,2.195-1.465
				c12.472-9.347,25.778-16.264,39.581-20.561c11.094-3.449,21.122-2.903,30.756,1.637c6.906,3.251,10.418,8.656,10.437,16.054
				c0.018,6.479-3.291,11.535-9.821,15.009c-13.655,7.281-28.265,9.205-44.814,5.903c-3.062-0.604-6.104-1.24-9.665-1.973
				l-7.368-1.531l1.846,5.833c2.083,6.591,1.739,14.985,1.408,23.092c-0.609,14.436-1.213,29.363,12.316,34.695
				c6.917,2.732,16.159,0.493,24.484-2.054c5.726-1.753,10.989-3.471,15.033-2.636c12.108,2.468,20.011,8.389,23.491,17.576
				c4.918,12.964,2.618,25.316-6.806,36.731c-7.681,9.313-18.318,14.754-33.501,17.131c-26.292,4.072-48.393-3.398-65.533-22.241
				c-14.568-16.021-24.611-36.173-30.697-61.609c-1.186-5.014-2.03-10.269-2.84-15.36c-0.375-2.396-0.756-4.785-1.18-7.17
				l-0.457-2.666l-6.842-0.708l-1.048,5.956c-0.394,2.139-0.793,4.258-0.976,6.401c-2.6,30.949,3.45,61.501,17.973,90.786
				c12.865,25.899,32.951,44.268,59.729,54.603c10.89,4.203,22.071,6.341,33.249,6.341c9.001,0,18.096-1.394,27.037-4.144
				c16.522-5.032,28.931-14.099,36.9-26.938c15.78-25.4,17.275-54.343,4.558-88.456c-0.847-2.276-1.859-4.426-2.934-6.624
				c2.873,0.36,5.647,0.667,8.439,0.727l2.799,0.042c5.476,0,11.799-0.378,18.218-2.203l-3.435,6.646
				c-0.588,1.1-1.009,1.934-1.405,2.799c-0.39,0.858-0.648,1.825-0.78,2.948c-2.732,22.271-0.336,40.286,7.542,56.691
				c9.602,19.996,28.601,31.921,50.818,31.921c10.244,0,20.368-2.678,29.279-7.728c28.229-16.026,43.163-41.962,45.673-79.294
				C348.559,236.564,347.959,223.937,345.869,208.3z M222.993,233.16c4.563-1.646,9.127-4.102,13.427-7.812
				c10.021-8.641,16.645-19.696,23.046-30.396l1.478-2.474c4.558-7.59,10.214-16.15,17.504-22.08
				c4.432-3.597,9.788-5.569,15.107-5.569c8.84,0,16.201,5.158,20.236,14.163c8.305,18.549,9.464,37.89,3.495,57.514
				c-7.235,23.791-30,41.049-54.133,41.049c-3.729,0-7.507-0.408-11.188-1.213c-13.379-2.967-23.479-13.175-25.736-26.062
				c-0.36-2.065-0.763-4.125-1.201-6.419L222.993,233.16z"/>
		</g>
		<g>
			<path d="M184.148,98.82c12.166,12.151,26.95,19.012,43.973,20.414c2.979,0.247,5.938,0.363,8.857,0.363
				c20.254,0,39.907-5.54,60.132-16.946c8.46-4.792,13.042-8.713,22.542-18.086c2.035-2.015,3.057-4.474,2.93-7.095
				c-0.33-6.918-8.178-13.318-17.264-20.729c-5.08-4.131-10.334-8.404-13.433-12.316l-2.762-3.486l-4.828,5.957
				c-1.135,1.408-2.155,2.702-3.236,3.924c-7.08,8.007-15.577,14.363-25.965,19.438c-24.464,11.965-47.09,9.788-67.677-6.605
				c-11.442-9.094-18.706-19.098-22.191-30.615l-4.173-13.748l-2.774,14.093c-1.777,8.989-1.102,18.254,2.141,29.144
				C165.08,78.275,175.029,89.721,184.148,98.82z"/>
		</g>
		<g>
			<path d="M197.959,46.356c5.344,5.032,10.725,10.022,16.003,14.886l9.193,8.518l9.686-9.446
				c7.428-7.236,14.646-14.271,21.768-21.44c1.897-1.925,2.882-7.017,0.45-9.416c-7.86-7.692-15.847-15.243-23.209-22.179L224.152,0
				l-2.45,2.216c-2.763,2.465-5.452,4.837-8.077,7.157c-5.584,4.93-10.874,9.584-15.954,14.553
				c-4.78,4.669-7.656,7.491-7.626,11.289C190.087,38.98,192.891,41.598,197.959,46.356z"/>
		</g>
	</g>
</g>
</svg>